<svg width="46" height="45" viewBox="0 0 46 45" fill="none" xmlns="http://www.w3.org/2000/svg">
<g filter="url(#filter0_f)">
<path d="M31.9424 6.58346L31.5991 6.92436C31.4026 7.11946 31.4021 7.43711 31.598 7.63284L37.8597 13.8902C38.055 14.0853 38.3715 14.0853 38.5667 13.89L38.9079 13.5489C39.3784 13.0945 39.7536 12.5509 40.0118 11.9499C40.27 11.3489 40.4059 10.7025 40.4115 10.0485C40.4172 9.39437 40.2926 8.74571 40.0449 8.14032C39.7972 7.53492 39.4314 6.98492 38.9689 6.5224C38.5064 6.05988 37.9564 5.6941 37.351 5.44642C36.7456 5.19873 36.097 5.07409 35.4429 5.07978C34.7888 5.08546 34.1424 5.22135 33.5414 5.47952C32.9404 5.73769 32.3968 6.11297 31.9424 6.58346Z" fill="#980BAF"/>
<path d="M13.6447 38.1355C14.0274 38.0472 14.1636 37.5725 13.8859 37.2948L8.19633 31.6052C7.91863 31.3275 7.44385 31.4637 7.35557 31.8464L5.64952 39.242C5.56647 39.602 5.88911 39.9246 6.24912 39.8416L13.6447 38.1355Z" fill="#980BAF"/>
<path d="M29.4932 9.02291L9.30082 29.2153C9.10556 29.4106 9.10556 29.7271 9.30082 29.9224L15.5602 36.1818C15.7555 36.3771 16.0721 36.3771 16.2673 36.1818L36.4597 15.9894C36.655 15.7941 36.655 15.4776 36.4597 15.2823L30.2003 9.02291C30.005 8.82765 29.6885 8.82765 29.4932 9.02291Z" fill="#980BAF"/>
</g>
<path d="M31.9424 6.58346L31.5991 6.92436C31.4026 7.11946 31.4021 7.43711 31.598 7.63284L37.8597 13.8902C38.055 14.0853 38.3715 14.0853 38.5667 13.89L38.9079 13.5489C39.3784 13.0945 39.7536 12.5509 40.0118 11.9499C40.27 11.3489 40.4059 10.7025 40.4115 10.0485C40.4172 9.39437 40.2926 8.74571 40.0449 8.14032C39.7972 7.53492 39.4314 6.98492 38.9689 6.5224C38.5064 6.05988 37.9564 5.6941 37.351 5.44642C36.7456 5.19873 36.097 5.07409 35.4429 5.07978C34.7888 5.08546 34.1424 5.22135 33.5414 5.47952C32.9404 5.73769 32.3968 6.11297 31.9424 6.58346Z" fill="#980BAF"/>
<path d="M13.6447 38.1355C14.0274 38.0472 14.1636 37.5725 13.8859 37.2948L8.19633 31.6052C7.91863 31.3275 7.44385 31.4637 7.35557 31.8464L5.64952 39.242C5.56647 39.602 5.88911 39.9246 6.24912 39.8416L13.6447 38.1355Z" fill="#980BAF"/>
<path d="M29.4932 9.02291L9.30082 29.2153C9.10556 29.4106 9.10556 29.7271 9.30082 29.9224L15.5602 36.1818C15.7555 36.3771 16.0721 36.3771 16.2673 36.1818L36.4597 15.9894C36.655 15.7941 36.655 15.4776 36.4597 15.2823L30.2003 9.02291C30.005 8.82765 29.6885 8.82765 29.4932 9.02291Z" fill="#980BAF"/>
<defs>
<filter id="filter0_f" x="0.63623" y="0.0795898" width="44.7754" height="44.7754" filterUnits="userSpaceOnUse" color-interpolation-filters="sRGB">
<feFlood flood-opacity="0" result="BackgroundImageFix"/>
<feBlend mode="normal" in="SourceGraphic" in2="BackgroundImageFix" result="shape"/>
<feGaussianBlur stdDeviation="2.5" result="effect1_foregroundBlur"/>
</filter>
</defs>
</svg>
