<svg width="39" height="34" viewBox="0 0 39 34" fill="none" xmlns="http://www.w3.org/2000/svg">
<g opacity="0.5">
<path fill-rule="evenodd" clip-rule="evenodd" d="M12.1558 10.8176C12.4832 10.8176 12.8105 10.6929 13.0599 10.4429L18.5497 4.95314V26.1629C18.5497 26.8687 19.1226 27.4416 19.8284 27.4416C20.535 27.4416 21.1072 26.8687 21.1072 26.1629V4.95314L26.597 10.4429C26.8463 10.6929 27.1737 10.8176 27.5011 10.8176C27.8284 10.8176 28.1558 10.6929 28.4052 10.4429C28.9045 9.94355 28.9045 9.13409 28.4052 8.63473L20.7332 0.962731C20.6737 0.903268 20.6085 0.849559 20.5375 0.802884C20.5056 0.781145 20.4704 0.766439 20.4371 0.747897C20.3975 0.726158 20.3598 0.702501 20.3176 0.685237C20.2747 0.667334 20.2306 0.657104 20.1865 0.644316C20.1507 0.634086 20.1162 0.62002 20.0791 0.612347C19.9135 0.579738 19.7434 0.579738 19.5778 0.612347C19.5407 0.62002 19.5062 0.634086 19.4704 0.644316C19.4263 0.657744 19.3822 0.667334 19.3393 0.685237C19.2971 0.702501 19.2594 0.726797 19.2191 0.748536C19.1859 0.766439 19.1513 0.781145 19.1194 0.802884C19.049 0.849559 18.9832 0.903268 18.9237 0.962731L11.2517 8.63473C10.7524 9.13409 10.7524 9.94355 11.2517 10.4429C11.5011 10.6929 11.8284 10.8176 12.1558 10.8176Z" fill="white" stroke="white"/>
<path fill-rule="evenodd" clip-rule="evenodd" d="M37.092 22.3267C36.3861 22.3267 35.8132 22.8989 35.8132 23.6054V29.9993H3.84392V23.6054C3.84392 22.8989 3.27167 22.3267 2.56515 22.3267C1.85927 22.3267 1.28638 22.8989 1.28638 23.6054V32.5568H38.3708V23.6054C38.3708 22.8989 37.7985 22.3267 37.092 22.3267Z" fill="white" stroke="white"/>
</g>
</svg>
