<svg width="46" height="51" viewBox="0 0 46 51" fill="none" xmlns="http://www.w3.org/2000/svg">
<g filter="url(#filter0_f)">
<path fill-rule="evenodd" clip-rule="evenodd" d="M30.3599 11.4843C30.3599 12.0112 30.7692 12.4468 31.2944 12.4882C40.3517 13.2022 40.4679 15.0539 40.4694 15.098L40.4694 15.101V18.9129C40.4694 19.4652 40.0217 19.9129 39.4694 19.9129H37.6626L35.2613 44.7264C35.2117 45.239 34.7809 45.6301 34.2659 45.6301H12.0114C11.4964 45.6301 11.0656 45.239 11.016 44.7264L8.6147 19.9129H6.80811C6.25582 19.9129 5.80811 19.4652 5.80811 18.9129V15.1009L5.80812 15.0981C5.80945 15.0564 5.91927 13.2027 14.9831 12.4882C15.5083 12.4468 15.9177 12.0112 15.9177 11.4843V8.84056C15.9177 6.98232 17.4293 5.4707 19.2875 5.4707H26.99C28.8478 5.4707 30.3599 6.98232 30.3599 8.84056V11.4843ZM20.7689 9.32196C20.2166 9.32196 19.7689 9.76968 19.7689 10.322V11.2266C19.7689 11.7887 20.2319 12.2399 20.7938 12.2303C21.5373 12.2175 22.3167 12.2104 23.1388 12.2104C23.9609 12.2104 24.7402 12.2175 25.4837 12.2303C26.0457 12.2399 26.5086 11.7887 26.5086 11.2266V10.322C26.5086 9.76968 26.0609 9.32196 25.5086 9.32196H20.7689ZM15.9166 40.816C15.943 40.816 15.9705 40.815 15.9979 40.8136C16.7942 40.7693 17.4036 40.0881 17.3598 39.2914L16.397 21.9607C16.3527 21.1645 15.6754 20.556 14.8748 20.5988C14.0786 20.6431 13.4686 21.3248 13.5129 22.121L14.4757 39.4517C14.5186 40.221 15.1555 40.816 15.9166 40.816ZM23.1386 40.816C23.9363 40.816 24.5829 40.1695 24.5829 39.3718V22.0411C24.5829 21.2434 23.9363 20.5969 23.1386 20.5969C22.3409 20.5969 21.6944 21.2434 21.6944 22.0411V39.3718C21.6944 40.1695 22.3409 40.816 23.1386 40.816ZM30.3612 40.816C31.1218 40.816 31.7587 40.221 31.8016 39.4517L32.7644 22.1215C32.8087 21.3253 32.1987 20.6436 31.4025 20.5993C30.6187 20.5622 29.9255 21.1645 29.8807 21.9612L28.9179 39.2919C28.8736 40.0881 29.4836 40.7693 30.2798 40.8136C30.3073 40.815 30.3338 40.816 30.3612 40.816Z" fill="#980BAF"/>
</g>
<path fill-rule="evenodd" clip-rule="evenodd" d="M30.3599 11.4843C30.3599 12.0112 30.7692 12.4468 31.2944 12.4882C40.3517 13.2022 40.4679 15.0539 40.4694 15.098L40.4694 15.101V18.9129C40.4694 19.4652 40.0217 19.9129 39.4694 19.9129H37.6626L35.2613 44.7264C35.2117 45.239 34.7809 45.6301 34.2659 45.6301H12.0114C11.4964 45.6301 11.0656 45.239 11.016 44.7264L8.6147 19.9129H6.80811C6.25582 19.9129 5.80811 19.4652 5.80811 18.9129V15.1009L5.80812 15.0981C5.80945 15.0564 5.91927 13.2027 14.9831 12.4882C15.5083 12.4468 15.9177 12.0112 15.9177 11.4843V8.84056C15.9177 6.98232 17.4293 5.4707 19.2875 5.4707H26.99C28.8478 5.4707 30.3599 6.98232 30.3599 8.84056V11.4843ZM20.7689 9.32196C20.2166 9.32196 19.7689 9.76968 19.7689 10.322V11.2266C19.7689 11.7887 20.2319 12.2399 20.7938 12.2303C21.5373 12.2175 22.3167 12.2104 23.1388 12.2104C23.9609 12.2104 24.7402 12.2175 25.4837 12.2303C26.0457 12.2399 26.5086 11.7887 26.5086 11.2266V10.322C26.5086 9.76968 26.0609 9.32196 25.5086 9.32196H20.7689ZM15.9166 40.816C15.943 40.816 15.9705 40.815 15.9979 40.8136C16.7942 40.7693 17.4036 40.0881 17.3598 39.2914L16.397 21.9607C16.3527 21.1645 15.6754 20.556 14.8748 20.5988C14.0786 20.6431 13.4686 21.3248 13.5129 22.121L14.4757 39.4517C14.5186 40.221 15.1555 40.816 15.9166 40.816ZM23.1386 40.816C23.9363 40.816 24.5829 40.1695 24.5829 39.3718V22.0411C24.5829 21.2434 23.9363 20.5969 23.1386 20.5969C22.3409 20.5969 21.6944 21.2434 21.6944 22.0411V39.3718C21.6944 40.1695 22.3409 40.816 23.1386 40.816ZM30.3612 40.816C31.1218 40.816 31.7587 40.221 31.8016 39.4517L32.7644 22.1215C32.8087 21.3253 32.1987 20.6436 31.4025 20.5993C30.6187 20.5622 29.9255 21.1645 29.8807 21.9612L28.9179 39.2919C28.8736 40.0881 29.4836 40.7693 30.2798 40.8136C30.3073 40.815 30.3338 40.816 30.3612 40.816Z" fill="#980BAF"/>
<defs>
<filter id="filter0_f" x="0.808105" y="0.470703" width="44.6614" height="50.1592" filterUnits="userSpaceOnUse" color-interpolation-filters="sRGB">
<feFlood flood-opacity="0" result="BackgroundImageFix"/>
<feBlend mode="normal" in="SourceGraphic" in2="BackgroundImageFix" result="shape"/>
<feGaussianBlur stdDeviation="2.5" result="effect1_foregroundBlur"/>
</filter>
</defs>
</svg>
