<svg width="80" height="77" viewBox="0 0 80 77" fill="none" xmlns="http://www.w3.org/2000/svg">
<g filter="url(#filter0_f)">
<path d="M59.2495 70.3028C58.7982 70.3028 58.2718 70.1524 57.8957 69.9268L40.2971 60.7514L22.6984 70.002C21.7207 70.5284 20.5174 70.4532 19.5397 69.7764C18.6372 69.0995 18.1859 67.9714 18.3363 66.8432L21.7207 47.2892L7.50638 33.3757C6.6791 32.5484 6.37826 31.4203 6.7543 30.3674C7.13034 29.3145 8.03284 28.4872 9.16096 28.3368L28.7902 25.4789L37.6648 7.65458C38.1912 6.60166 39.1689 6 40.2971 6C41.4252 6 42.4781 6.60166 42.9293 7.65458L51.7287 25.4789L71.4332 28.3368C72.5613 28.4872 73.4638 29.2393 73.8398 30.3674C74.2158 31.4955 73.915 32.6236 73.0877 33.3757L58.7982 47.2892L62.1826 66.8432C62.4082 67.9714 61.957 69.0995 60.9792 69.7764C60.4528 70.1524 59.8511 70.3028 59.2495 70.3028ZM11.342 31.7963L24.6538 44.8825C25.3307 45.5594 25.7067 46.5371 25.4811 47.5148L22.3224 65.9407L38.8681 57.2166C39.7706 56.7654 40.7483 56.7654 41.6508 57.2166L58.1966 65.9407L55.0378 47.5148C54.8874 46.5371 55.1882 45.5594 55.8651 44.8825L69.2521 31.8715L50.8262 29.1641C49.8485 29.0136 49.0212 28.412 48.5699 27.5095L40.2971 10.7381L32.0242 27.5095C31.5729 28.412 30.7456 29.0136 29.7679 29.1641L11.342 31.7963Z" fill="#F9F6FF"/>
</g>
<path d="M59.2495 70.3028C58.7982 70.3028 58.2718 70.1524 57.8957 69.9268L40.2971 60.7514L22.6984 70.002C21.7207 70.5284 20.5174 70.4532 19.5397 69.7764C18.6372 69.0995 18.1859 67.9714 18.3363 66.8432L21.7207 47.2892L7.50638 33.3757C6.6791 32.5484 6.37826 31.4203 6.7543 30.3674C7.13034 29.3145 8.03284 28.4872 9.16096 28.3368L28.7902 25.4789L37.6648 7.65458C38.1912 6.60166 39.1689 6 40.2971 6C41.4252 6 42.4781 6.60166 42.9293 7.65458L51.7287 25.4789L71.4332 28.3368C72.5613 28.4872 73.4638 29.2393 73.8398 30.3674C74.2158 31.4955 73.915 32.6236 73.0877 33.3757L58.7982 47.2892L62.1826 66.8432C62.4082 67.9714 61.957 69.0995 60.9792 69.7764C60.4528 70.1524 59.8511 70.3028 59.2495 70.3028ZM11.342 31.7963L24.6538 44.8825C25.3307 45.5594 25.7067 46.5371 25.4811 47.5148L22.3224 65.9407L38.8681 57.2166C39.7706 56.7654 40.7483 56.7654 41.6508 57.2166L58.1966 65.9407L55.0378 47.5148C54.8874 46.5371 55.1882 45.5594 55.8651 44.8825L69.2521 31.8715L50.8262 29.1641C49.8485 29.0136 49.0212 28.412 48.5699 27.5095L40.2971 10.7381L32.0242 27.5095C31.5729 28.412 30.7456 29.0136 29.7679 29.1641L11.342 31.7963Z" fill="#F9F6FF"/>
<defs>
<filter id="filter0_f" x="0.594238" y="0" width="79.4056" height="76.3477" filterUnits="userSpaceOnUse" color-interpolation-filters="sRGB">
<feFlood flood-opacity="0" result="BackgroundImageFix"/>
<feBlend mode="normal" in="SourceGraphic" in2="BackgroundImageFix" result="shape"/>
<feGaussianBlur stdDeviation="3" result="effect1_foregroundBlur"/>
</filter>
</defs>
</svg>
